<?xml version="1.0" encoding="UTF-8" standalone="no"?>
<!-- Created with Inkscape (http://www.inkscape.org/) -->

<svg
   width="166.24863mm"
   height="171.13982mm"
   viewBox="0 0 166.24863 171.13982"
   version="1.1"
   id="svg5"
   xml:space="preserve"
   xmlns:inkscape="http://www.inkscape.org/namespaces/inkscape"
   xmlns:sodipodi="http://sodipodi.sourceforge.net/DTD/sodipodi-0.dtd"
   xmlns="http://www.w3.org/2000/svg"
   xmlns:svg="http://www.w3.org/2000/svg"><sodipodi:namedview
     id="namedview7"
     pagecolor="#ffffff"
     bordercolor="#111111"
     borderopacity="1"
     inkscape:showpageshadow="0"
     inkscape:pageopacity="0"
     inkscape:pagecheckerboard="1"
     inkscape:deskcolor="#d1d1d1"
     inkscape:document-units="mm"
     showgrid="false" /><defs
     id="defs2" /><g
     inkscape:label="Calque 1"
     inkscape:groupmode="layer"
     id="layer1"
     transform="translate(-325.02943,17.704404)"><path
       style="fill:#000000;stroke-width:0.264583"
       d="m 380.41761,153.30324 c -11.28241,-0.28582 -27.77233,-1.11431 -33.56404,-1.68632 -16.89808,-1.66894 -22.05054,-2.68162 -21.8166,-4.28791 0.0455,-0.31244 0.43992,-0.77588 0.87648,-1.02986 1.91541,-1.11432 11.17649,-2.39253 20.13275,-2.7787 2.24214,-0.0967 4.07662,-0.25617 4.07662,-0.35442 0,-0.0983 -0.56554,-0.57822 -1.25677,-1.06658 -3.00303,-2.12169 -8.17649,-6.60002 -11.12671,-9.63165 -7.20302,-7.40179 -11.14695,-14.4262 -11.15337,-19.86492 -0.007,-5.47533 3.37735,-11.12724 7.97585,-13.321905 2.89729,-1.38274 4.81585,-1.70069 9.3433,-1.54837 3.62498,0.12195 5.61932,0.44275 8.63186,1.38846 0.33119,0.10397 0.49993,-0.15504 0.73563,-1.12913 1.15116,-4.75764 4.24809,-12.03881 7.19709,-16.92104 3.39876,-5.6268 6.52327,-9.76996 17.38238,-23.04933 2.54156,-3.10802 4.81704,-7.417152 6.49098,-12.292117 0.0874,-0.254661 0.36042,-0.463021 0.60662,-0.463021 0.41453,0 0.4351,0.611549 0.27807,8.268228 -0.22128,10.78927 -0.62662,15.22987 -1.81737,19.9099 -1.45518,5.71929 -4.83266,9.68808 -9.70982,11.40975 -4.05334,1.43086 -6.15544,0.39702 -7.04039,-3.46256 l -0.30111,-1.31321 -1.3847,2.23926 c -1.68571,2.72604 -4.77529,9.02143 -5.57397,11.35762 -0.70144,2.05177 -2.13444,7.538105 -2.13228,8.163575 0.001,0.3234 0.77901,0.73458 2.84427,1.50347 1.56351,0.58209 2.97706,1.09404 3.14123,1.13767 0.18701,0.0497 0.36971,-0.58572 0.48919,-1.70133 0.30938,-2.889025 0.27946,-2.867085 2.18888,-1.60468 l 1.65364,1.09331 v 4.44012 c 0,2.44207 -0.0737,4.44012 -0.16382,4.44012 -0.0901,0 -0.86055,-0.42323 -1.71209,-0.94052 -4.45972,-2.70914 -11.52643,-5.52666 -16.63133,-6.63096 -5.62018,-1.21578 -8.58847,-1.11675 -11.77776,0.39295 -2.03413,0.96288 -3.39646,2.3492 -4.42371,4.50161 -1.77872,3.72697 -1.1198,7.35524 2.23402,12.30129 1.75646,2.59036 5.66013,6.93233 8.85696,9.85143 3.08437,2.8164 10.37772,8.43162 13.28434,10.22772 l 1.61217,0.99622 0.27799,-0.73115 c 0.35884,-0.94382 0.9734,-1.61277 1.94163,-2.11346 0.6055,-0.31312 1.99891,-0.4175 6.35063,-0.47573 l 5.57493,-0.0746 0.13229,-20.61845 0.13229,-20.618435 0.76249,-0.99953 c 1.41135,-1.85012 -0.81368,-1.73723 34.22016,-1.73614 30.99488,10e-4 31.71104,0.0124 32.54166,0.51884 0.46712,0.28481 1.1815,1.01976 1.5875,1.6332 l 0.73819,1.11536 0.0706,20.392355 0.0706,20.39238 4.9565,-0.0601 c 5.78611,-0.0702 7.16712,0.2215 8.1737,1.72646 0.32099,0.47992 0.62942,1.00999 0.6854,1.17794 0.13224,0.3967 1.90716,-0.63168 5.49011,-3.18092 5.25795,-3.74101 8.31942,-6.2874 12.16028,-10.1144 8.40822,-8.37786 11.06014,-14.4329 8.63816,-19.7232 -1.77563,-3.8785 -5.86079,-5.91586 -11.19097,-5.58118 -2.60188,0.16337 -6.90921,1.06397 -10.13664,2.11942 -2.78314,0.91016 -8.96765,3.6552 -11.41357,5.06601 -1.13053,0.65209 -2.1206,1.18562 -2.20014,1.18562 -0.0795,0 -0.14462,-1.93937 -0.14462,-4.30972 v -4.30972 l 1.38906,-0.83682 c 2.10686,-1.26922 2.21764,-1.28368 2.41142,-0.31475 0.0926,0.46273 0.16827,1.43449 0.16827,2.15947 0,0.95084 0.0922,1.28017 0.33073,1.18184 2.65915,-1.09599 5.21607,-2.14066 5.69434,-2.3265 0.6773,-0.26318 0.70004,0.0184 -0.34844,-4.315305 -0.3839,-1.58678 -1.11033,-3.96803 -1.61429,-5.29167 -1.01704,-2.67121 -4.39567,-9.31499 -5.70435,-11.21709 l -0.84312,-1.22543 -0.36214,1.42941 c -0.66101,2.60898 -1.91955,3.71171 -4.23621,3.71171 -3.9065,0 -8.87131,-3.631 -11.03418,-8.06979 -2.17269,-4.45898 -2.99024,-10.43728 -3.23296,-23.64085 -0.15162,-8.248305 -0.13944,-8.556156 0.33489,-8.464806 0.3476,0.06694 0.73999,0.766277 1.33539,2.379955 2.14347,5.809361 3.03626,7.196071 10.19751,15.838881 11.32215,13.66455 16.8441,22.87628 19.69022,32.8473 0.3879,1.35892 0.75026,2.54875 0.80526,2.64407 0.055,0.0953 0.77651,-0.003 1.60336,-0.21928 4.5327,-1.18366 10.07849,-1.49395 13.26684,-0.74231 4.84359,1.14187 8.91407,4.785145 10.5719,9.462375 0.5588,1.57653 0.67796,2.39337 0.68382,4.68736 0.006,2.45559 -0.093,3.06995 -0.85481,5.29167 -0.82642,2.41006 -2.53558,5.71167 -3.97208,7.67292 -4.45523,6.08271 -12.01262,13.41847 -17.55547,17.0406 -0.68913,0.45033 -1.25509,0.88945 -1.25771,0.97581 -0.003,0.0864 1.93001,0.23182 4.29473,0.32322 10.44265,0.40363 19.23519,1.80054 20.61935,3.27588 l 0.61346,0.65388 -0.71265,0.61371 c -1.45743,1.25509 -7.8429,2.24418 -22.17381,3.43465 -20.25548,1.68261 -30.82657,2.01213 -62.14992,1.9373 -12.74801,-0.0305 -24.36883,-0.0855 -25.82404,-0.1224 z m 70.36676,-5.93639 c 1.50436,-0.41766 2.79054,-1.78742 2.79054,-2.97189 0,-0.51529 -0.11615,-1.00867 -0.25811,-1.0964 -0.34192,-0.21132 -90.15178,-0.2155 -90.49365,-0.004 -0.1457,0.0901 -0.26491,0.62061 -0.26491,1.17903 0,0.83011 0.16981,1.16441 0.93089,1.83265 0.512,0.44954 1.19661,0.87395 1.52136,0.94315 0.32475,0.0692 0.82858,0.17617 1.11962,0.23771 0.29105,0.0616 19.22198,0.12505 42.06876,0.14112 29.42502,0.0207 41.84461,-0.0555 42.5855,-0.26116 z m -39.9341,-25.48987 c 1.28756,-0.98207 2.08086,-2.7615 1.90938,-4.28289 -0.15576,-1.38189 -0.6552,-2.19621 -1.95506,-3.18766 -0.84528,-0.64473 -1.2145,-0.74522 -2.73802,-0.74522 -1.5213,0 -1.89326,0.1009 -2.73285,0.74128 -2.80821,2.14193 -2.39924,6.60739 0.73536,8.02922 1.32552,0.60125 3.61369,0.33577 4.78119,-0.55473 z m -45.38161,2.67549 c -2.28114,-2.17888 -5.64654,-4.52748 -9.26042,-6.46251 -3.12688,-1.67428 -4.80636,-2.35698 -7.66603,-3.11621 -2.63868,-0.70055 -3.26083,-1.278 -2.54843,-2.36528 0.59423,-0.90691 1.30234,-1.02608 5.15326,-0.86731 2.66709,0.10997 3.76857,0.2809 5.45808,0.847 3.38135,1.133 6.64973,3.1284 10.12827,6.1835 l 0.86785,0.76221 -0.0741,3.45702 -0.0741,3.45701 z m 82.90673,-0.10949 c 0.0928,-0.98226 0.16952,-2.46399 0.17055,-3.29272 0.002,-1.43451 0.0569,-1.55833 1.14814,-2.58115 3.21645,-3.0147 5.67157,-4.49189 9.77508,-5.88144 2.10491,-0.71277 2.92091,-0.84367 5.93992,-0.95287 2.95465,-0.10687 3.60376,-0.0585 4.16719,0.3107 0.72663,0.4761 0.87548,1.38691 0.33666,2.06002 -0.18191,0.22724 -1.16081,0.61515 -2.17535,0.86202 -5.23297,1.27335 -12.62261,5.47684 -17.58789,10.00461 -0.75801,0.69122 -1.50528,1.25677 -1.66059,1.25677 -0.18889,0 -0.22654,-0.5913 -0.11371,-1.78594 z M 398.47881,84.794635 c -4.76994,-5.78997 -7.93488,-11.48756 -9.58673,-17.25822 -1.2783,-4.46565 -1.21039,-6.39499 0.22509,-6.39499 0.91001,0 1.31221,0.61235 2.67789,4.0771 1.51003,3.83095 3.82527,8.94117 5.10543,11.26874 1.33278,2.42323 4.07605,6.60814 4.90856,7.48811 1.20918,1.27808 0.71458,2.83063 -0.90174,2.83063 -0.63927,0 -1.05543,-0.34467 -2.4285,-2.01137 z m 15.40792,1.61368 c -0.58956,-0.71037 -0.37468,-1.71385 0.58507,-2.73228 2.10794,-2.2368 6.15167,-9.59924 9.05141,-16.47996 0.95771,-2.2725 1.74128,-4.25074 1.74128,-4.39609 0,-0.56632 1.12388,-1.65856 1.7066,-1.65856 1.0241,0 1.29017,0.6095 1.12764,2.58319 -0.38754,4.70617 -4.47621,13.64741 -8.61888,18.84806 -2.94667,3.69921 -3.50126,4.23333 -4.3956,4.23333 -0.47711,0 -1.01599,-0.17896 -1.19752,-0.39769 z m -9.25974,-23.11967 c -1.37521,-0.44767 -2.96733,-1.41038 -3.93837,-2.38142 l -1.00599,-1.00599 -2.12972,0.12328 c -1.87395,0.10848 -2.30618,0.0425 -3.59908,-0.5494 -1.78198,-0.81582 -3.56046,-2.53585 -4.3866,-4.24241 -0.46726,-0.96524 -0.66584,-1.99736 -0.83861,-4.358727 -0.29774,-4.069559 -0.3776,-4.505597 -1.7055,-9.311717 -1.46987,-5.319982 -1.88521,-7.382118 -2.38141,-11.823784 -0.22454,-2.009886 -0.46836,-4.146451 -0.54182,-4.747923 l -0.13356,-1.093584 -2.631,1.157899 c -3.81445,1.678735 -5.99669,2.227737 -9.51667,2.394181 -4.56482,0.215848 -8.02069,-0.6692 -11.51159,-2.948113 -0.87191,-0.569195 -3.81771,-3.236994 -6.54623,-5.928444 -5.60488,-5.528747 -5.68147,-5.667917 -3.96875,-7.211758 3.28571,-2.9617123 10.91297,-5.2893233 16.04817,-4.8974163 3.16829,0.241797 4.8513,0.778155 9.68256,3.085737 4.23096,2.0208563 6.93342,3.0311753 7.25304,2.7115583 0.0854,-0.08541 0.1553,-0.771448 0.1553,-1.524526 V 9.3668587 l -1.12448,-0.332248 c -1.82275,-0.538562 -4.45432,-2.042356 -6.07458,-3.471281 -1.93813,-1.70925 -4.00998,-4.81157398 -4.72406,-7.073656 -0.86798,-2.7496 -0.98881,-6.773687 -0.28677,-9.5499127 1.33791,-5.290703 3.38983,-7.772381 5.00136,-6.04885 0.53945,0.576947 0.54423,0.648366 0.15499,2.315104 -0.53819,2.304557 -0.3769,4.8114837 0.41416,6.4374727 0.82493,1.695593 2.82994,3.661405 4.63532,4.544692 l 1.46238,0.715481 1.21156,-1.066453 c 1.61647,-1.422879 3.1829,-1.952294 6.0439,-2.042702 l 2.34816,-0.0742 1.14934,-1.313865 c 2.51344,-2.8732427 5.32182,-3.9191277 9.89705,-3.6858177 1.52821,0.07793 3.30572,0.333367 3.95078,0.567748 1.09174,0.396682 1.26519,0.393769 2.51355,-0.0422 1.01204,-0.353444 2.11951,-0.463407 4.51588,-0.448398 4.22001,0.02643 5.60807,0.541989 8.14666,3.0258337 l 1.81265,1.773557 2.49028,0.148574 c 2.82363,0.16846 4.69926,0.869193 6.11594,2.284913 1.01511,1.014417 1.51093,0.947541 3.76201,-0.507405 3.44108,-2.224071 4.65688,-5.6425957 3.68327,-10.3563597 -0.40038,-1.938443 -0.0171,-2.87129 1.17983,-2.87129 2.47455,0 4.98302,6.555494 4.60656,12.0385407 -0.36488,5.31454002 -3.19778,10.291667 -7.3296,12.877384 -0.91738,0.574104 -3.08335,1.461574 -4.35927,1.786139 l -1.05833,0.269216 0.0885,1.5725613 0.0885,1.572565 1.86115,-0.51575 c 1.02363,-0.283665 3.44167,-1.328391 5.37343,-2.3216163 5.36506,-2.758469 9.41941,-3.599759 14.25005,-2.956919 5.25559,0.699389 12.60194,4.4687833 12.60194,6.4660303 0,0.938522 -9.89838,10.600181 -12.30313,12.008892 -3.11134,1.822639 -5.17131,2.315256 -9.65729,2.309427 -4.4749,-0.0058 -5.76631,-0.286691 -10.2526,-2.229915 -1.63711,-0.709109 -2.97697,-1.210722 -2.97747,-1.114695 -5.3e-4,0.09603 -0.12407,1.543815 -0.27461,3.217304 -0.39823,4.426841 -1.17684,8.573396 -2.48744,13.247014 -1.22398,4.364675 -1.58198,6.336894 -1.97049,10.855201 -0.25376,2.95125 -0.68062,4.16349 -2.03124,5.76862 -1.81523,2.15728 -4.9005,3.41413 -7.30712,2.97672 -1.40055,-0.25456 -1.40057,-0.25456 -2.54772,0.80286 -0.63094,0.58157 -1.82286,1.37136 -2.64871,1.75507 -1.30929,0.60834 -1.89115,0.70574 -4.54426,0.7607 -1.67349,0.0347 -3.34037,-0.0339 -3.70417,-0.1523 z m -2.11667,-7.94081 1.98438,-0.49823 -1.26527,-0.0291 c -0.6959,-0.016 -1.66001,-0.19402 -2.14247,-0.39561 -0.94869,-0.39638 -2.01622,-1.864907 -2.01622,-2.77356 0,-0.493951 0.15129,-0.564084 1.21679,-0.564084 2.81901,0 4.2632,-1.644578 4.11603,-4.687146 -0.0561,-1.159948 -1.32424,-2.538749 -3.11346,-3.385189 -0.92677,-0.43843 -1.53756,-0.918932 -1.69522,-1.333603 -0.2674,-0.703302 -0.76286,-0.832842 -1.26498,-0.330729 -0.90141,0.901412 0.066,2.372551 2.30694,3.508116 1.9292,0.977599 2.39404,2.292467 1.22405,3.462452 -1.36081,1.36081 -4.18875,0.568542 -5.25598,-1.472507 -0.38983,-0.745524 -0.45455,-1.308389 -0.34009,-2.957405 0.32576,-4.692872 2.03532,-5.870582 6.64238,-4.57591 3.92027,1.101672 5.51444,1.125752 9.56407,0.14446 2.9487,-0.714518 3.63655,-0.800415 4.51515,-0.563835 1.13442,0.305469 2.01221,1.092353 2.42028,2.169644 0.47258,1.247605 0.65147,4.331136 0.3111,5.362472 -0.87183,2.641664 -5.38546,3.481329 -5.98001,1.112454 -0.26733,-1.065125 0.51039,-2.110627 2.26618,-3.046453 1.73348,-0.923935 2.287,-1.68837 2.01302,-2.780019 -0.23873,-0.951151 -1.09683,-0.891265 -1.61604,0.112781 -0.22576,0.436563 -0.55782,0.79375 -0.73793,0.79375 -0.82811,0 -3.06029,1.870604 -3.62554,3.038253 -1.31427,2.714919 0.5188,5.428414 3.66709,5.428414 1.27902,0 1.35784,0.03916 1.35784,0.674598 0,1.771266 -1.6616,3.020516 -4.04025,3.037616 -1.4995,0.0108 -0.84624,0.35419 1.52671,0.80258 2.51213,0.47468 5.35534,0.43739 6.35,-0.0833 2.05409,-1.07527 3.04268,-2.963614 3.04275,-5.812068 3e-5,-1.059701 0.18501,-2.879227 0.41108,-4.043395 0.65203,-3.357723 0.0698,-5.494744 -2.1986,-8.069791 -3.72522,-4.228785 -6.25741,-15.844322 -4.56074,-20.920769 1.69374,-5.067678 5.82653,-8.0441083 9.75454,-7.0251983 1.56882,0.4069453 1.49957,0.5860343 0.9593,-2.481114 -0.21789,-1.236927 -0.40154,-3.022864 -0.40813,-3.96875 -0.007,-0.945885 -0.17131,-2.166276 -0.36606,-2.71197898 -0.19474,-0.545703 -0.29784,-0.992187 -0.2291,-0.992187 0.44906,0 2.25859,1.62212798 2.7201,2.43840498 0.50131,0.886648 0.63918,0.968748 1.40392,0.836038 4.63624,-0.804547 7.33127,-2.60971698 9.28948,-6.222245 l 0.76855,-1.417823 -1.12544,1.260951 c -1.40244,1.571302 -2.9058,2.46371 -5.49736,3.26329702 -1.99503,0.615532 -2.02115,0.61667 -2.38053,0.103584 -0.55721,-0.79553002 -2.6081,-1.89263002 -4.26871,-2.28349102 -0.82182,-0.193435 -2.55625,-0.35356 -3.85429,-0.355833 l -2.36007,-0.0041 -1.75935,-1.698514 c -1.4252,-1.375915 -2.05377,-1.784104 -3.30946,-2.149141 -2.30415,-0.669838 -4.26272,-0.412226 -6.82716,0.897982 l -2.07051,1.057847 -2.12487,-1.104607 c -2.04807,-1.064683 -2.21243,-1.104296 -4.54732,-1.096004 -2.94606,0.01045 -3.9792,0.467106 -6.10718,2.699348 l -1.43661,1.506992 -2.33412,-0.06634 c -3.55122,-0.100928 -6.12585,0.675029 -7.93236,2.39069802 -0.79873,0.758574 -0.88074,0.779132 -1.85208,0.464286 -1.84036,-0.59653 -4.08381,-1.85623702 -5.31376,-2.98371202 l -1.21031,-1.109461 0.6372,1.14364 c 1.49044,2.67503802 4.9419,4.934043 8.51955,5.576094 l 1.26777,0.227515 0.51049,-1.000636 c 0.53414,-1.04700098 2.25018,-2.63932098 2.84439,-2.63932098 0.27143,0 0.28068,0.121875 0.043,0.566046 -0.55593,1.038776 -0.79721,2.18982998 -1.046,4.99020298 -0.13575,1.527969 -0.324,3.342188 -0.41833,4.031597 l -0.1715,1.2534743 0.85708,-0.4275703 c 1.96315,-0.979352 5.60018,0.215781 7.79396,2.5611093 3.84847,4.114323 4.17989,10.33958 1.04942,19.711742 -0.95079,2.846541 -1.68221,4.218016 -3.16922,5.942562 -2.22416,2.579447 -2.84585,4.79856 -2.12321,7.578815 0.2324,0.894131 0.42321,2.501475 0.42402,3.571876 0.002,2.457595 0.32697,3.624527 1.4065,5.048358 1.58728,2.09353 4.20379,2.47252 8.91077,1.29069 z m 21.97585,-36.944594 c 1.24605,-0.644355 3.4451,-0.504118 4.62233,0.29477 0.83235,0.564848 1.11467,0.634807 1.62442,0.402548 0.83822,-0.381921 0.77513,-0.906106 -0.2087,-1.733947 -2.82817,-2.379747 -6.54339,-1.992376 -8.44642,0.880679 -0.84938,1.282324 -0.96119,1.863341 -0.45584,2.36869 0.25857,0.258567 0.5114,0.10328 1.2192,-0.748816 0.49113,-0.591267 1.23139,-1.250032 1.64501,-1.463924 z m -29.64876,1.697649 c 0,-0.892278 -1.06902,-2.551149 -2.10805,-3.271192 -1.16911,-0.810196 -2.95865,-1.166812 -4.37425,-0.871688 -1.31525,0.274204 -3.63657,1.925479 -3.52231,2.505607 0.14618,0.742185 0.9321,1.049242 1.60317,0.626353 1.37622,-0.867256 1.98551,-1.072449 3.18905,-1.073994 1.55456,-0.0021 2.58202,0.500827 3.51032,1.717884 0.80142,1.050719 1.70207,1.244933 1.70207,0.36703 z"
       id="path868" /></g></svg>
